<svg id="Layer_1" data-name="Layer 1" xmlns="http://www.w3.org/2000/svg" xmlns:xlink="http://www.w3.org/1999/xlink" width="194.08" height="83.52" viewBox="0 0 194.08 83.52">
  <defs>
    <style>
      .cls-1 {
        fill: url(#linear-gradient);
      }

      .cls-2 {
        fill: url(#linear-gradient-2);
      }

      .cls-3 {
        fill: url(#linear-gradient-3);
      }

      .cls-4 {
        fill: #1e293b;
      }
    </style>
    <linearGradient id="linear-gradient" x1="2.83" y1="39.37" x2="49.79" y2="39.37" gradientUnits="userSpaceOnUse">
      <stop offset="0" stop-color="#0d6efd"/>
      <stop offset="1" stop-color="#2563eb"/>
    </linearGradient>
    <linearGradient id="linear-gradient-2" x1="55.7" y1="39.37" x2="144.39" y2="39.37" xlink:href="#linear-gradient"/>
    <linearGradient id="linear-gradient-3" x1="149.96" y1="39.37" x2="196.91" y2="39.37" xlink:href="#linear-gradient"/>
  </defs>
  <g>
    <path class="cls-1" d="M45.9,41.23a22.57,22.57,0,0,0-5.85-4.41,70.8,70.8,0,0,0-9.39-4.15c-1.86-.7-3.38-1.34-4.58-1.93a19.17,19.17,0,0,1-2.84-1.63,3.84,3.84,0,0,1-1.39-1.57,4.66,4.66,0,0,1-.35-1.85q0-4.52,8.12-4.52a35.71,35.71,0,0,1,7.94.81,65.2,65.2,0,0,1,6.55,1.85l3-13.44A49.1,49.1,0,0,0,39,8.24a56,56,0,0,0-10.67-1q-11.13,0-17.51,5A16.3,16.3,0,0,0,4.46,25.81a20,20,0,0,0,1.27,7.53,15.56,15.56,0,0,0,3.6,5.39A21.47,21.47,0,0,0,15,42.62q3.3,1.62,7.36,3.13a48.45,48.45,0,0,1,7.77,3.53c1.7,1,2.55,2.26,2.55,3.66a3.59,3.59,0,0,1-2,3.59q-2,.93-6.73.93a43.88,43.88,0,0,1-9.16-1,56,56,0,0,1-9-2.72l-2.9,14a53.94,53.94,0,0,0,7.48,2.31,55,55,0,0,0,13.51,1.4q12.41,0,19.19-4.63t6.78-13.65a23.34,23.34,0,0,0-.87-6.71A13.73,13.73,0,0,0,45.9,41.23Z" transform="translate(-2.83 -7.26)"/>
    <path class="cls-2" d="M124.38,18q-1.11,4.93-2.33,10.14t-2.62,10.5c-.94,3.51-1.87,6.9-2.8,10.14q-1.51-5.1-2.9-10.43t-2.67-10.5q-1.28-5.14-2.43-10c-.78-3.2-1.47-6.2-2.09-9H94c-.62,2.78-1.33,5.78-2.15,9s-1.66,6.54-2.55,10-1.81,6.94-2.78,10.5-2,7-3,10.43c-.93-3.24-1.84-6.63-2.74-10.14s-1.75-7-2.56-10.5S76.68,21.27,75.94,18s-1.42-6.32-2-9.1H55.7q2.55,9,5.29,17.91T66.34,43.6q2.61,7.95,5.06,14.67c1.62,4.48,3.14,8.35,4.53,11.59H89.38q2.9-8.8,5.51-17.5t4.93-17.51q2.31,8.81,5.1,17.51t5.68,17.5h13.45q2.08-4.86,4.59-11.59t5.12-14.67q2.61-7.93,5.34-16.81t5.29-17.91h-18C125.8,11.66,125.12,14.7,124.38,18Z" transform="translate(-2.83 -7.26)"/>
    <path class="cls-3" d="M196.05,46.5a13.73,13.73,0,0,0-3-5.27,22.57,22.57,0,0,0-5.85-4.41,71,71,0,0,0-9.4-4.15c-1.85-.7-3.38-1.34-4.57-1.93a19.9,19.9,0,0,1-2.85-1.63A4,4,0,0,1,169,27.54a4.66,4.66,0,0,1-.34-1.85q0-4.52,8.11-4.52a35.65,35.65,0,0,1,7.94.81,64.45,64.45,0,0,1,6.55,1.85l3-13.44a49.26,49.26,0,0,0-8.12-2.15,55.83,55.83,0,0,0-10.66-1q-11.13,0-17.51,5a16.31,16.31,0,0,0-6.38,13.57,20,20,0,0,0,1.28,7.53,15.54,15.54,0,0,0,3.59,5.39,21.64,21.64,0,0,0,5.62,3.89c2.21,1.08,4.66,2.12,7.37,3.13a48.87,48.87,0,0,1,7.77,3.53c1.69,1,2.55,2.26,2.55,3.66a3.58,3.58,0,0,1-2,3.59q-2,.93-6.72.93a43.81,43.81,0,0,1-9.16-1,55.68,55.68,0,0,1-9-2.72l-2.9,14a53.49,53.49,0,0,0,7.48,2.31,54.9,54.9,0,0,0,13.5,1.4q12.41,0,19.19-4.63t6.78-13.65A23.36,23.36,0,0,0,196.05,46.5Z" transform="translate(-2.83 -7.26)"/>
  </g>
  <g>
    <path class="cls-4" d="M52.41,88.51a1.11,1.11,0,0,0-.63.11,2.78,2.78,0,0,1-.78.27,4.54,4.54,0,0,1-.82.07,4.43,4.43,0,0,1-1.38-.21,2.91,2.91,0,0,1-1.1-.68A3.07,3.07,0,0,1,47,86.94a4.38,4.38,0,0,1-.27-1.61,4.09,4.09,0,0,1,.24-1.43A3.07,3.07,0,0,1,48.72,82a4,4,0,0,1,1.46-.26,3.86,3.86,0,0,1,.84.09,3.78,3.78,0,0,1,.76.26,1.22,1.22,0,0,0,.63.12.69.69,0,0,0,.51-.3,1,1,0,0,0,.22-.77.8.8,0,0,0-.46-.62,4.92,4.92,0,0,0-1.2-.44,5.64,5.64,0,0,0-1.3-.15,5.75,5.75,0,0,0-2.18.4,5.16,5.16,0,0,0-1.73,1.12,4.74,4.74,0,0,0-1.13,1.7,5.55,5.55,0,0,0-.4,2.14,6,6,0,0,0,.43,2.37,4.82,4.82,0,0,0,1.21,1.7,5.11,5.11,0,0,0,1.74,1,6.15,6.15,0,0,0,2.06.35,4.91,4.91,0,0,0,.86-.07,5.28,5.28,0,0,0,1.65-.52.78.78,0,0,0,.46-.58.87.87,0,0,0-.22-.78A.79.79,0,0,0,52.41,88.51Z" transform="translate(-2.83 -7.26)"/>
    <path class="cls-4" d="M64.56,81.49a5.09,5.09,0,0,0-1.64-1.18,5.26,5.26,0,0,0-4.12,0,5.12,5.12,0,0,0-1.62,1.18,5.2,5.2,0,0,0-1.07,1.73,6.08,6.08,0,0,0,0,4.23,5.2,5.2,0,0,0,1.07,1.73,5.12,5.12,0,0,0,1.62,1.18,5.26,5.26,0,0,0,4.12,0,5.09,5.09,0,0,0,1.64-1.18,5.17,5.17,0,0,0,1.06-1.73,6.08,6.08,0,0,0,0-4.23A5.17,5.17,0,0,0,64.56,81.49Zm-.93,5.68a3.34,3.34,0,0,1-1.12,1.31,2.91,2.91,0,0,1-1.65.48,2.86,2.86,0,0,1-1.65-.48,3.32,3.32,0,0,1-1.11-1.31,4.43,4.43,0,0,1,0-3.68,3.36,3.36,0,0,1,1.11-1.3,2.87,2.87,0,0,1,1.65-.49,2.91,2.91,0,0,1,1.65.49,3.34,3.34,0,0,1,1.12,1.31,4.31,4.31,0,0,1,0,3.67Z" transform="translate(-2.83 -7.26)"/>
    <path class="cls-4" d="M77.29,80a.79.79,0,0,0-.61.24.87.87,0,0,0-.23.61V87.4l-5.5-7a.66.66,0,0,0-.33-.25,1.47,1.47,0,0,0-.44-.08.92.92,0,0,0-.93.92v8.82a.87.87,0,0,0,.23.61.78.78,0,0,0,.59.24.81.81,0,0,0,.61-.24.84.84,0,0,0,.24-.61V83.32l5.55,7.05a.63.63,0,0,0,.31.19,1.12,1.12,0,0,0,.4.07.91.91,0,0,0,.92-.92V80.89a.83.83,0,0,0-.23-.61A.75.75,0,0,0,77.29,80Z" transform="translate(-2.83 -7.26)"/>
    <path class="cls-4" d="M88.27,85.42a3.76,3.76,0,0,0-1.15-.58,10.82,10.82,0,0,0-1.59-.4,8.29,8.29,0,0,1-1.2-.31,1.73,1.73,0,0,1-.76-.47,1.12,1.12,0,0,1,0-1.41,1.52,1.52,0,0,1,.67-.45,3.25,3.25,0,0,1,2,0,4.91,4.91,0,0,1,.86.32,2.6,2.6,0,0,1,.65.4.67.67,0,0,0,.41.13.8.8,0,0,0,.6-.27.82.82,0,0,0,.26-.6,1,1,0,0,0-.44-.81,4.33,4.33,0,0,0-1.37-.75,5.6,5.6,0,0,0-1.82-.29,4.87,4.87,0,0,0-1.9.36A3.19,3.19,0,0,0,82,81.31,2.79,2.79,0,0,0,81.52,83a3.13,3.13,0,0,0,.21,1.17,2.49,2.49,0,0,0,.63.91,3.34,3.34,0,0,0,1,.64,6.61,6.61,0,0,0,1.43.37,6,6,0,0,1,1.42.34,2.06,2.06,0,0,1,.84.53,1.15,1.15,0,0,1,.27.77,1,1,0,0,1-.29.68,2.1,2.1,0,0,1-.76.47,3,3,0,0,1-1,.17,3.59,3.59,0,0,1-1.4-.24,5,5,0,0,1-1.15-.71.79.79,0,0,0-.51-.18.82.82,0,0,0-.63.26.9.9,0,0,0-.25.61,1,1,0,0,0,.11.43,1.32,1.32,0,0,0,.3.38,4.78,4.78,0,0,0,1.62.93,6.58,6.58,0,0,0,1.91.26,4.86,4.86,0,0,0,1.91-.38,3.4,3.4,0,0,0,1.43-1.09,2.71,2.71,0,0,0,.54-1.69A3.39,3.39,0,0,0,89,86.31,2.21,2.21,0,0,0,88.27,85.42Z" transform="translate(-2.83 -7.26)"/>
    <path class="cls-4" d="M99.94,80a.76.76,0,0,0-.62.26,1,1,0,0,0-.23.66v5.47a2.41,2.41,0,0,1-.34,1.31,2.49,2.49,0,0,1-.91.86,2.52,2.52,0,0,1-1.21.3,2.31,2.31,0,0,1-1.14-.3,2.22,2.22,0,0,1-.86-.86,2.5,2.5,0,0,1-.33-1.31V81a.87.87,0,0,0-.28-.66.89.89,0,0,0-.63-.26.93.93,0,0,0-.69.26.91.91,0,0,0-.28.66v5.47A4.52,4.52,0,0,0,93,88.65a3.91,3.91,0,0,0,1.48,1.51,4.69,4.69,0,0,0,4.37,0,4,4,0,0,0,1.47-1.51,4.52,4.52,0,0,0,.54-2.23V81a1,1,0,0,0-.24-.66A.82.82,0,0,0,99.94,80Z" transform="translate(-2.83 -7.26)"/>
    <path class="cls-4" d="M110.44,88.86h-4V81a.83.83,0,0,0-.28-.65.9.9,0,0,0-.64-.27,1,1,0,0,0-.7.27.86.86,0,0,0-.27.65v8.75a.91.91,0,0,0,.92.92h4.92a.92.92,0,0,0,.66-.25.91.91,0,0,0,0-1.27A.92.92,0,0,0,110.44,88.86Z" transform="translate(-2.83 -7.26)"/>
    <path class="cls-4" d="M120.06,80h-6.72a1,1,0,0,0-.66.24.79.79,0,0,0-.26.62.84.84,0,0,0,.26.64,1,1,0,0,0,.66.24h2.38v7.93a.86.86,0,0,0,.27.65.93.93,0,0,0,.69.27,1,1,0,0,0,.72-.27.83.83,0,0,0,.28-.65V81.78h2.38a1,1,0,0,0,.66-.23.83.83,0,0,0,.26-.63.85.85,0,0,0-.26-.64A1,1,0,0,0,120.06,80Z" transform="translate(-2.83 -7.26)"/>
    <path class="cls-4" d="M127.91,80.59a.92.92,0,0,0-.34-.45.88.88,0,0,0-.51-.16.82.82,0,0,0-.54.14,1,1,0,0,0-.37.47l-3.76,9a1,1,0,0,0,0,.29.83.83,0,0,0,.2.56.75.75,0,0,0,.6.22.85.85,0,0,0,.48-.15.93.93,0,0,0,.32-.45l.79-1.85h4.51l.79,1.83a1,1,0,0,0,.34.46.78.78,0,0,0,.49.16.85.85,0,0,0,.58-.24.82.82,0,0,0,.26-.65,1,1,0,0,0-.07-.36Zm-2.44,5.92L127,83l1.52,3.54Z" transform="translate(-2.83 -7.26)"/>
    <path class="cls-4" d="M142.53,80a.78.78,0,0,0-.6.24.87.87,0,0,0-.23.61V87.4l-5.5-7a.69.69,0,0,0-.34-.25,1.36,1.36,0,0,0-.44-.08.92.92,0,0,0-.92.92v8.82a.87.87,0,0,0,.23.61.78.78,0,0,0,.59.24.82.82,0,0,0,.61-.24.84.84,0,0,0,.24-.61V83.32l5.55,7.05a.63.63,0,0,0,.31.19,1.12,1.12,0,0,0,.4.07.91.91,0,0,0,.92-.92V80.89a.87.87,0,0,0-.23-.61A.76.76,0,0,0,142.53,80Z" transform="translate(-2.83 -7.26)"/>
    <path class="cls-4" d="M154.75,80.28a1,1,0,0,0-.66-.24h-6.72a.92.92,0,0,0-.65.24.77.77,0,0,0-.27.62.81.81,0,0,0,.27.64.92.92,0,0,0,.65.24h2.38v7.93a.86.86,0,0,0,.27.65.94.94,0,0,0,.7.27,1,1,0,0,0,.71-.27.83.83,0,0,0,.28-.65V81.78h2.38a1,1,0,0,0,.66-.23.83.83,0,0,0,.26-.63A.85.85,0,0,0,154.75,80.28Z" transform="translate(-2.83 -7.26)"/>
  </g>
</svg>
