<?xml version="1.0" encoding="utf-8"?>
<!-- Generator: Adobe Illustrator 25.2.0, SVG Export Plug-In . SVG Version: 6.00 Build 0)  -->
<svg version="1.1" id="layer" xmlns="http://www.w3.org/2000/svg" xmlns:xlink="http://www.w3.org/1999/xlink" x="0px" y="0px"
	 viewBox="0 0 605.5 213.4" style="enable-background:new 0 0 605.5 213.4;" xml:space="preserve">
<style type="text/css">
	.st0{fill:#1E3A8A;}
	.st1{fill:#FFFFFF;}
</style>
<g>
	<path class="st0" d="M216.6,106.7C216.6,47.8,168.1,0,108.3,0S0,47.8,0,106.7s48.5,106.7,108.3,106.7S216.6,165.6,216.6,106.7"/>
	<path class="st1" d="M28.8,129.5l1.9-8.9h24.7c0.6,0,1.3-0.1,1.8-0.5c0.5-0.5,0.8-1.1,0.9-1.8l1.4-6.3c0-0.2,0.1-0.4,0.1-0.7
		c0-0.8-0.6-1.2-1.8-1.2H39.6c-1.5,0.1-2.9-0.3-4.1-1.2c-0.9-0.9-1.3-2.1-1.3-3.3c0-0.7,0.1-1.3,0.2-2l2.5-11.8c0.4-2.3,1.4-4.3,3-6
		c1.4-1.3,3.6-2,6.6-2h28.8l-1.8,8.7H49c-0.6,0-1.1,0.1-1.6,0.5c-0.4,0.5-0.7,1.1-0.8,1.7l-1.3,6c0,0.2-0.1,0.3-0.1,0.5v0.4
		c0,0.7,0.5,1,1.5,1h18.5c1.9,0,3.3,0.4,4.1,1.2c0.9,0.9,1.4,2.1,1.3,3.4c0,0.6-0.1,1.3-0.2,1.9l-2.7,12.4c-0.4,2.3-1.4,4.3-3,6
		c-1.4,1.3-3.6,2-6.6,2L28.8,129.5"/>
	<polygon class="st1" points="112.2,129.5 110.5,97 93.7,129.5 82.1,129.5 80.3,83.9 91,83.9 91.7,117.3 108.5,83.9 118.8,83.9 
		120.3,117.3 136.1,83.9 146.3,83.9 123.9,129.5 	"/>
	<path class="st1" d="M141.2,129.5l1.9-8.9h24.7c0.6,0,1.3-0.1,1.8-0.5c0.5-0.5,0.8-1.1,0.9-1.8l1.4-6.3c0-0.2,0.1-0.4,0.1-0.7
		c0-0.8-0.6-1.2-1.8-1.2h-18.3c-1.5,0.1-2.9-0.3-4.1-1.2c-0.9-0.9-1.4-2.1-1.3-3.3c0-0.7,0.1-1.3,0.2-2l2.5-11.8
		c0.4-2.3,1.4-4.3,3-6c1.4-1.3,3.6-2,6.6-2h28.8l-1.8,8.7h-24.5c-0.6,0-1.1,0.1-1.6,0.5c-0.4,0.5-0.7,1.1-0.8,1.7l-1.3,6
		c0,0.2-0.1,0.3-0.1,0.5v0.4c0,0.7,0.5,1,1.5,1h18.5c1.9,0,3.3,0.4,4.1,1.2c0.9,0.9,1.4,2.1,1.3,3.4c0,0.6-0.1,1.3-0.2,1.9
		l-2.7,12.4c-0.4,2.3-1.4,4.3-3,6c-1.4,1.3-3.6,2-6.6,2L141.2,129.5"/>
</g>
<g>
	<path class="st0" d="M258.1,87.1h-14.2c-2.6,0-4.5,0.7-5.7,2.2c-1.1,1.4-1.9,3.7-2.3,7.2l-2.3,19c-0.4,3.5-0.2,5.9,0.6,7.3
		c0.9,1.5,2.7,2.3,5.4,2.3h14.2c2.6,0,4.5-0.7,5.7-2.1c1.1-1.3,1.8-3.7,2.3-7.2l0.5-4.3c0.1-0.5-0.2-0.9-0.7-1.1l-4.1-1.3
		c-0.3-0.1-0.6,0-0.8,0.1c-0.2,0.2-0.4,0.4-0.4,0.7l-1,8.1h-15.6l2.9-24.1H258l-0.8,7c0,0.3,0.1,0.7,0.3,0.9
		c0.2,0.2,0.6,0.3,0.9,0.2l4.4-1.1c0.4-0.1,0.7-0.4,0.7-0.8l0.4-3.4c0.4-3.6,0.3-6-0.5-7.4C262.6,87.8,260.8,87.1,258.1,87.1z"/>
	<path class="st0" d="M298.4,87.1h-17.6c-2.6,0-4.6,0.7-5.7,2.2c-1.1,1.4-1.8,3.7-2.3,7.2l-2.3,19c-0.4,3.5-0.2,5.9,0.5,7.3
		c0.9,1.5,2.7,2.3,5.4,2.3H294c2.6,0,4.5-0.7,5.7-2.1c1.1-1.3,1.8-3.7,2.3-7.3l2.3-19c0.4-3.5,0.2-5.9-0.5-7.3
		C302.9,87.8,301.1,87.1,298.4,87.1z M298.4,94l-2.9,24.1h-19l2.9-24.1H298.4z"/>
	<path class="st0" d="M345.3,87.1h-3.9c-0.5,0-0.9,0.4-1,0.9l-2.4,19.7c-0.3,2.1-0.4,3.7-0.5,5c-0.2-0.4-0.5-0.8-0.7-1.1l-16.1-24.1
		c-0.2-0.3-0.5-0.4-0.8-0.4h-2.7c-0.5,0-0.9,0.4-1,0.9l-4.4,36c0,0.3,0.1,0.6,0.2,0.8c0.2,0.2,0.5,0.3,0.7,0.3h3.9
		c0.5,0,0.9-0.4,1-0.9l2.6-21.2c0.2-1.5,0.3-2.9,0.4-4.1c0,0.1,0.1,0.1,0.1,0.2c0.2,0.3,0.3,0.5,0.4,0.6l16.5,25
		c0.2,0.3,0.5,0.4,0.8,0.4h2.4c0.5,0,0.9-0.4,1-0.9l4.4-36c0-0.3-0.1-0.6-0.2-0.8C345.9,87.2,345.6,87.1,345.3,87.1z"/>
	<path class="st0" d="M377.9,87.1h-13.5c-2.6,0-4.5,0.7-5.7,2.2c-1.1,1.4-1.8,3.7-2.3,7.2l-0.4,3.1c-0.4,3.5-0.3,5.9,0.5,7.3
		c0.9,1.5,2.7,2.3,5.3,2.3h14.8l-1.1,8.8h-16.9l0.6-4.7c0-0.3-0.1-0.7-0.4-0.9c-0.3-0.2-0.6-0.3-0.9-0.2l-4.1,1.3
		c-0.4,0.1-0.6,0.4-0.7,0.8l-0.1,1c-0.4,3.5-0.2,5.9,0.6,7.3c0.9,1.5,2.7,2.3,5.4,2.3h14.8c2.6,0,4.5-0.7,5.7-2.1
		c1.1-1.3,1.8-3.7,2.3-7.2l0.5-4.1c0.4-3.5,0.2-5.9-0.6-7.3c-0.9-1.5-2.7-2.3-5.3-2.3h-14.9l1-8h16l-0.5,4.1c0,0.3,0.1,0.7,0.4,0.9
		s0.6,0.3,1,0.1l3.8-1.5c0.3-0.1,0.6-0.4,0.6-0.8l0.1-0.7c0.4-3.2,0.2-5.4-0.7-6.8C382.3,87.8,380.5,87.1,377.9,87.1z"/>
	<path class="st0" d="M424,87.1h-4.2c-0.5,0-0.9,0.4-1,0.9l-3.6,30.1h-16.5l3.6-29.8c0-0.3-0.1-0.6-0.2-0.8
		c-0.2-0.2-0.5-0.3-0.7-0.3H397c-0.5,0-0.9,0.4-1,0.9l-3.3,27.5c-0.4,3.5-0.2,5.9,0.6,7.3c0.9,1.5,2.7,2.3,5.4,2.3h15.1
		c2.6,0,4.5-0.7,5.7-2.1c1.1-1.3,1.8-3.7,2.3-7.3l3.3-27.5c0-0.3-0.1-0.6-0.2-0.8C424.5,87.2,424.2,87.1,424,87.1z"/>
	<path class="st0" d="M465.1,118H447l3.6-29.8c0-0.3-0.1-0.6-0.2-0.8c-0.2-0.2-0.5-0.3-0.7-0.3h-4.3c-0.5,0-0.9,0.4-1,0.9l-4.4,36
		c0,0.3,0.1,0.6,0.2,0.8c0.2,0.2,0.5,0.3,0.7,0.3h23.5c0.5,0,0.9-0.4,1-0.9l0.6-5c0-0.3-0.1-0.6-0.2-0.8
		C465.7,118.2,465.4,118,465.1,118z"/>
	<path class="st0" d="M495.1,93.1l0.6-4.9c0-0.3-0.1-0.6-0.2-0.8c-0.2-0.2-0.5-0.3-0.7-0.3h-27.5c-0.5,0-0.9,0.4-1,0.9l-0.6,4.9
		c0,0.3,0.1,0.6,0.2,0.8c0.2,0.2,0.5,0.3,0.7,0.3h10.5l-3.6,30c0,0.3,0.1,0.6,0.2,0.8c0.2,0.2,0.5,0.3,0.7,0.3h4.2
		c0.5,0,0.9-0.4,1-0.9l3.7-30.2h10.8C494.6,94,495,93.6,495.1,93.1z"/>
	<path class="st0" d="M515.1,87.8c-0.1-0.4-0.5-0.7-1-0.7h-4.5c-0.4,0-0.7,0.2-0.9,0.5l-18.2,36c-0.2,0.3-0.1,0.7,0,1
		c0.2,0.3,0.5,0.5,0.9,0.5h4.2c0.4,0,0.7-0.2,0.9-0.6l4-8.3h15.8l2,8.1c0.1,0.4,0.5,0.8,1,0.8h4.7c0.3,0,0.6-0.1,0.8-0.4
		c0.2-0.2,0.3-0.6,0.2-0.9L515.1,87.8z M514.6,109.6h-10.8l7.2-14.5L514.6,109.6z"/>
	<path class="st0" d="M564.6,87.1h-3.9c-0.5,0-0.9,0.4-1,0.9l-2.4,19.7c-0.3,2.1-0.4,3.7-0.5,5c-0.2-0.4-0.5-0.8-0.7-1.1L540,87.5
		c-0.2-0.3-0.5-0.4-0.8-0.4h-2.7c-0.5,0-0.9,0.4-1,0.9l-4.4,36c0,0.3,0.1,0.6,0.2,0.8c0.2,0.2,0.5,0.3,0.7,0.3h3.9
		c0.5,0,0.9-0.4,1-0.9l2.6-21.2c0.2-1.5,0.3-2.9,0.4-4.1c0,0.1,0.1,0.1,0.1,0.2c0.2,0.3,0.3,0.5,0.4,0.6l16.5,25
		c0.2,0.3,0.5,0.4,0.8,0.4h2.4c0.5,0,0.9-0.4,1-0.9l4.4-36c0-0.3-0.1-0.6-0.2-0.8C565.1,87.2,564.8,87.1,564.6,87.1z"/>
	<path class="st0" d="M600,87.4c-0.2-0.2-0.5-0.3-0.7-0.3h-27.5c-0.5,0-0.9,0.4-1,0.9l-0.6,4.9c0,0.3,0.1,0.6,0.2,0.8
		c0.2,0.2,0.5,0.3,0.7,0.3h10.5l-3.6,30c0,0.3,0.1,0.6,0.2,0.8c0.2,0.2,0.5,0.3,0.7,0.3h4.2c0.5,0,0.9-0.4,1-0.9l3.7-30.2h10.8
		c0.5,0,0.9-0.4,1-0.9l0.6-4.9C600.3,87.9,600.2,87.6,600,87.4z"/>
</g>
</svg>
