<?xml version="1.0" encoding="utf-8"?>
<!-- Generator: Adobe Illustrator 25.2.0, SVG Export Plug-In . SVG Version: 6.00 Build 0)  -->
<svg version="1.1" id="Layer_1" xmlns="http://www.w3.org/2000/svg" xmlns:xlink="http://www.w3.org/1999/xlink" x="0px" y="0px"
	 viewBox="0 0 200 100" style="enable-background:new 0 0 200 100;" xml:space="preserve">
<style type="text/css">
	.st0{fill:#FFFFFF;}
</style>
<g>
	<path class="st0" d="M45.9,41.2c-1.4-1.6-3.4-3.1-5.9-4.4c-2.5-1.4-5.6-2.7-9.4-4.2c-1.9-0.7-3.4-1.3-4.6-1.9
		c-1.2-0.6-2.1-1.1-2.8-1.6c-0.7-0.5-1.2-1-1.4-1.6c-0.2-0.5-0.3-1.2-0.3-1.9c0-3,2.7-4.5,8.1-4.5c2.9,0,5.6,0.3,7.9,0.8
		c2.4,0.5,4.5,1.2,6.6,1.9l3-13.4c-2-0.8-4.7-1.5-8.1-2.1c-3.4-0.7-7-1-10.7-1c-7.4,0-13.3,1.7-17.5,5c-4.3,3.3-6.4,7.8-6.4,13.6
		c0,2.9,0.4,5.4,1.3,7.5c0.8,2.1,2,3.9,3.6,5.4c1.5,1.5,3.4,2.8,5.6,3.9c2.2,1.1,4.7,2.1,7.4,3.1c3.5,1.3,6.1,2.5,7.8,3.5
		c1.7,1,2.6,2.3,2.6,3.7c0,1.8-0.7,3-2,3.6c-1.3,0.6-3.6,0.9-6.7,0.9c-3,0-6.1-0.3-9.2-1c-3.1-0.7-6.1-1.6-9-2.7l-2.9,14
		c1.4,0.6,3.9,1.4,7.5,2.3c3.6,0.9,8.1,1.4,13.5,1.4c8.3,0,14.7-1.5,19.2-4.6c4.5-3.1,6.8-7.6,6.8-13.7c0-2.5-0.3-4.8-0.9-6.7
		C48.3,44.6,47.3,42.8,45.9,41.2z"/>
	<path class="st0" d="M124.4,18c-0.7,3.3-1.5,6.7-2.3,10.1c-0.8,3.5-1.7,7-2.6,10.5c-0.9,3.5-1.9,6.9-2.8,10.1
		c-1-3.4-2-6.9-2.9-10.4c-0.9-3.6-1.8-7.1-2.7-10.5c-0.9-3.4-1.7-6.8-2.4-10c-0.8-3.2-1.5-6.2-2.1-9H94c-0.6,2.8-1.3,5.8-2.1,9
		c-0.8,3.2-1.7,6.5-2.6,10c-0.9,3.4-1.8,6.9-2.8,10.5c-1,3.6-2,7-3,10.4c-0.9-3.2-1.8-6.6-2.7-10.1c-0.9-3.5-1.7-7-2.6-10.5
		c-0.8-3.5-1.6-6.9-2.3-10.1c-0.7-3.3-1.4-6.3-2-9.1H55.7c1.7,6,3.5,12,5.3,17.9c1.8,5.9,3.6,11.5,5.3,16.8
		c1.7,5.3,3.4,10.2,5.1,14.7c1.6,4.5,3.1,8.3,4.5,11.6h13.4c1.9-5.9,3.8-11.7,5.5-17.5c1.7-5.8,3.4-11.6,4.9-17.5
		c1.5,5.9,3.2,11.7,5.1,17.5c1.9,5.8,3.7,11.6,5.7,17.5H124c1.4-3.2,2.9-7.1,4.6-11.6c1.7-4.5,3.4-9.4,5.1-14.7
		c1.7-5.3,3.5-10.9,5.3-16.8s3.6-11.9,5.3-17.9h-18C125.8,11.7,125.1,14.7,124.4,18z"/>
	<path class="st0" d="M196,46.5c-0.6-1.9-1.6-3.7-3-5.3c-1.4-1.6-3.4-3.1-5.9-4.4c-2.5-1.4-5.6-2.7-9.4-4.2
		c-1.9-0.7-3.4-1.3-4.6-1.9c-1.2-0.6-2.1-1.1-2.8-1.6c-0.7-0.5-1.2-1-1.4-1.6c-0.2-0.5-0.3-1.2-0.3-1.9c0-3,2.7-4.5,8.1-4.5
		c2.9,0,5.6,0.3,7.9,0.8c2.4,0.5,4.5,1.2,6.6,1.9l3-13.4c-2-0.8-4.7-1.5-8.1-2.1c-3.4-0.7-7-1-10.7-1c-7.4,0-13.3,1.7-17.5,5
		c-4.3,3.3-6.4,7.8-6.4,13.6c0,2.9,0.4,5.4,1.3,7.5c0.8,2.1,2,3.9,3.6,5.4c1.5,1.5,3.4,2.8,5.6,3.9c2.2,1.1,4.7,2.1,7.4,3.1
		c3.5,1.3,6.1,2.5,7.8,3.5c1.7,1,2.6,2.3,2.6,3.7c0,1.8-0.7,3-2,3.6c-1.3,0.6-3.6,0.9-6.7,0.9c-3,0-6.1-0.3-9.2-1
		c-3.1-0.7-6.1-1.6-9-2.7l-2.9,14c1.4,0.6,3.9,1.4,7.5,2.3c3.6,0.9,8.1,1.4,13.5,1.4c8.3,0,14.7-1.5,19.2-4.6
		c4.5-3.1,6.8-7.6,6.8-13.7C196.9,50.7,196.6,48.4,196,46.5z"/>
</g>
<g>
	<path class="st0" d="M52.4,88.5c-0.2,0-0.4,0-0.6,0.1c-0.3,0.1-0.5,0.2-0.8,0.3c-0.3,0.1-0.5,0.1-0.8,0.1c-0.5,0-1-0.1-1.4-0.2
		c-0.4-0.1-0.8-0.4-1.1-0.7c-0.3-0.3-0.6-0.7-0.7-1.1c-0.2-0.5-0.3-1-0.3-1.6c0-0.5,0.1-1,0.2-1.4c0.2-0.4,0.4-0.8,0.7-1.1
		c0.3-0.3,0.7-0.6,1.1-0.7c0.4-0.2,0.9-0.3,1.5-0.3c0.3,0,0.6,0,0.8,0.1c0.3,0.1,0.5,0.1,0.8,0.3c0.2,0.1,0.4,0.1,0.6,0.1
		c0.2,0,0.4-0.1,0.5-0.3c0.2-0.2,0.3-0.5,0.2-0.8c0-0.3-0.2-0.5-0.5-0.6c-0.4-0.2-0.8-0.3-1.2-0.4C51.1,80,50.6,80,50.2,80
		c-0.8,0-1.5,0.1-2.2,0.4c-0.7,0.3-1.2,0.6-1.7,1.1c-0.5,0.5-0.9,1-1.1,1.7c-0.3,0.7-0.4,1.4-0.4,2.1c0,0.9,0.1,1.7,0.4,2.4
		c0.3,0.7,0.7,1.2,1.2,1.7s1.1,0.8,1.7,1c0.7,0.2,1.3,0.3,2.1,0.3c0.3,0,0.6,0,0.9-0.1c0.3,0,0.6-0.1,0.8-0.2
		c0.3-0.1,0.5-0.2,0.8-0.3c0.3-0.1,0.4-0.3,0.5-0.6c0.1-0.3,0-0.5-0.2-0.8C52.8,88.6,52.6,88.5,52.4,88.5z"/>
	<path class="st0" d="M64.6,81.5c-0.5-0.5-1-0.9-1.6-1.2c-0.6-0.3-1.3-0.4-2.1-0.4c-0.7,0-1.4,0.1-2.1,0.4c-0.6,0.3-1.2,0.7-1.6,1.2
		c-0.5,0.5-0.8,1.1-1.1,1.7c-0.3,0.7-0.4,1.4-0.4,2.1c0,0.8,0.1,1.5,0.4,2.1c0.3,0.7,0.6,1.2,1.1,1.7c0.5,0.5,1,0.9,1.6,1.2
		c0.6,0.3,1.3,0.4,2.1,0.4c0.7,0,1.4-0.1,2.1-0.4c0.6-0.3,1.2-0.7,1.6-1.2c0.5-0.5,0.8-1.1,1.1-1.7c0.3-0.7,0.4-1.4,0.4-2.1
		c0-0.8-0.1-1.5-0.4-2.1C65.4,82.6,65,82,64.6,81.5z M63.6,87.2c-0.3,0.5-0.6,1-1.1,1.3c-0.5,0.3-1,0.5-1.6,0.5
		c-0.6,0-1.2-0.2-1.6-0.5c-0.5-0.3-0.8-0.8-1.1-1.3c-0.3-0.5-0.4-1.2-0.4-1.8c0-0.7,0.1-1.3,0.4-1.8c0.3-0.5,0.6-1,1.1-1.3
		c0.5-0.3,1-0.5,1.6-0.5c0.6,0,1.2,0.2,1.6,0.5c0.5,0.3,0.8,0.8,1.1,1.3c0.3,0.5,0.4,1.2,0.4,1.8C64,86,63.9,86.6,63.6,87.2z"/>
	<path class="st0" d="M77.3,80c-0.3,0-0.5,0.1-0.6,0.2s-0.2,0.4-0.2,0.6v6.5l-5.5-7c-0.1-0.1-0.2-0.2-0.3-0.2
		c-0.2-0.1-0.3-0.1-0.4-0.1c-0.3,0-0.5,0.1-0.7,0.3c-0.2,0.2-0.3,0.4-0.3,0.7v8.8c0,0.2,0.1,0.4,0.2,0.6c0.2,0.2,0.3,0.2,0.6,0.2
		c0.3,0,0.5-0.1,0.6-0.2c0.2-0.2,0.2-0.4,0.2-0.6v-6.5l5.6,7c0.1,0.1,0.2,0.1,0.3,0.2c0.1,0,0.3,0.1,0.4,0.1c0.3,0,0.5-0.1,0.7-0.3
		c0.2-0.2,0.3-0.4,0.3-0.7v-8.8c0-0.2-0.1-0.4-0.2-0.6S77.5,80,77.3,80z"/>
	<path class="st0" d="M88.3,85.4c-0.3-0.2-0.7-0.4-1.1-0.6s-1-0.3-1.6-0.4c-0.5-0.1-0.9-0.2-1.2-0.3c-0.3-0.1-0.6-0.3-0.8-0.5
		c-0.2-0.2-0.3-0.4-0.3-0.7c0-0.3,0.1-0.5,0.2-0.7c0.2-0.2,0.4-0.3,0.7-0.5c0.3-0.1,0.7-0.2,1.1-0.2c0.3,0,0.5,0,0.8,0.1
		s0.6,0.2,0.9,0.3c0.3,0.1,0.5,0.3,0.7,0.4c0.1,0.1,0.3,0.1,0.4,0.1c0.2,0,0.4-0.1,0.6-0.3c0.2-0.2,0.3-0.4,0.3-0.6
		c0-0.3-0.1-0.6-0.4-0.8c-0.4-0.3-0.8-0.6-1.4-0.7c-0.6-0.2-1.2-0.3-1.8-0.3c-0.7,0-1.3,0.1-1.9,0.4c-0.6,0.2-1,0.6-1.4,1.1
		s-0.5,1-0.5,1.7c0,0.4,0.1,0.8,0.2,1.2c0.1,0.3,0.4,0.7,0.6,0.9c0.3,0.3,0.6,0.5,1,0.6c0.4,0.2,0.9,0.3,1.4,0.4
		c0.6,0.1,1,0.2,1.4,0.3c0.4,0.1,0.7,0.3,0.8,0.5c0.2,0.2,0.3,0.5,0.3,0.8c0,0.3-0.1,0.5-0.3,0.7c-0.2,0.2-0.4,0.4-0.8,0.5
		C86,89,85.7,89,85.3,89c-0.6,0-1-0.1-1.4-0.2c-0.4-0.2-0.8-0.4-1.1-0.7c-0.2-0.1-0.3-0.2-0.5-0.2c-0.3,0-0.5,0.1-0.6,0.3
		c-0.2,0.2-0.2,0.4-0.2,0.6c0,0.1,0,0.3,0.1,0.4c0.1,0.1,0.2,0.3,0.3,0.4c0.5,0.4,1.1,0.8,1.6,0.9c0.6,0.2,1.2,0.3,1.9,0.3
		c0.7,0,1.3-0.1,1.9-0.4c0.6-0.3,1.1-0.6,1.4-1.1c0.4-0.5,0.5-1,0.5-1.7c0-0.5-0.1-1-0.2-1.3C88.8,86,88.6,85.7,88.3,85.4z"/>
	<path class="st0" d="M99.9,80c-0.3,0-0.5,0.1-0.6,0.3s-0.2,0.4-0.2,0.7v5.5c0,0.5-0.1,0.9-0.3,1.3c-0.2,0.4-0.5,0.7-0.9,0.9
		c-0.4,0.2-0.8,0.3-1.2,0.3c-0.4,0-0.8-0.1-1.1-0.3c-0.4-0.2-0.6-0.5-0.9-0.9c-0.2-0.4-0.3-0.8-0.3-1.3v-5.5c0-0.3-0.1-0.5-0.3-0.7
		c-0.2-0.2-0.4-0.3-0.6-0.3c-0.3,0-0.5,0.1-0.7,0.3s-0.3,0.4-0.3,0.7v5.5c0,0.8,0.2,1.6,0.5,2.2c0.4,0.6,0.9,1.1,1.5,1.5
		c0.6,0.4,1.4,0.5,2.2,0.5c0.8,0,1.6-0.2,2.2-0.5s1.1-0.9,1.5-1.5c0.4-0.6,0.5-1.4,0.5-2.2v-5.5c0-0.3-0.1-0.5-0.2-0.7
		S100.2,80,99.9,80z"/>
	<path class="st0" d="M110.4,88.9h-3.9V81c0-0.3-0.1-0.5-0.3-0.7c-0.2-0.2-0.4-0.3-0.6-0.3c-0.3,0-0.5,0.1-0.7,0.3
		c-0.2,0.2-0.3,0.4-0.3,0.7v8.7c0,0.3,0.1,0.5,0.3,0.7c0.2,0.2,0.4,0.3,0.7,0.3h4.9c0.3,0,0.5-0.1,0.7-0.2c0.2-0.2,0.3-0.4,0.3-0.6
		c0-0.3-0.1-0.5-0.3-0.6C110.9,88.9,110.7,88.9,110.4,88.9z"/>
	<path class="st0" d="M120.1,80h-6.7c-0.3,0-0.5,0.1-0.7,0.2c-0.2,0.2-0.3,0.4-0.3,0.6c0,0.3,0.1,0.5,0.3,0.6
		c0.2,0.2,0.4,0.2,0.7,0.2h2.4v7.9c0,0.3,0.1,0.5,0.3,0.7c0.2,0.2,0.4,0.3,0.7,0.3c0.3,0,0.5-0.1,0.7-0.3c0.2-0.2,0.3-0.4,0.3-0.7
		v-7.9h2.4c0.3,0,0.5-0.1,0.7-0.2c0.2-0.2,0.3-0.4,0.3-0.6c0-0.3-0.1-0.5-0.3-0.6C120.5,80.1,120.3,80,120.1,80z"/>
	<path class="st0" d="M127.9,80.6c-0.1-0.2-0.2-0.3-0.3-0.4c-0.2-0.1-0.3-0.2-0.5-0.2c-0.2,0-0.4,0-0.5,0.1
		c-0.2,0.1-0.3,0.3-0.4,0.5l-3.8,9c0,0.1,0,0.2,0,0.3c0,0.2,0.1,0.4,0.2,0.6c0.1,0.2,0.3,0.2,0.6,0.2c0.2,0,0.3-0.1,0.5-0.2
		c0.1-0.1,0.3-0.3,0.3-0.4l0.8-1.8h4.5l0.8,1.8c0.1,0.2,0.2,0.3,0.3,0.5c0.1,0.1,0.3,0.2,0.5,0.2c0.2,0,0.4-0.1,0.6-0.2
		c0.2-0.2,0.3-0.4,0.3-0.7c0-0.1,0-0.2-0.1-0.4L127.9,80.6z M125.5,86.5L127,83l1.5,3.5H125.5z"/>
	<path class="st0" d="M142.5,80c-0.3,0-0.5,0.1-0.6,0.2c-0.2,0.2-0.2,0.4-0.2,0.6v6.5l-5.5-7c-0.1-0.1-0.2-0.2-0.3-0.2
		c-0.2-0.1-0.3-0.1-0.4-0.1c-0.3,0-0.5,0.1-0.7,0.3c-0.2,0.2-0.3,0.4-0.3,0.7v8.8c0,0.2,0.1,0.4,0.2,0.6c0.2,0.2,0.3,0.2,0.6,0.2
		c0.3,0,0.5-0.1,0.6-0.2c0.2-0.2,0.2-0.4,0.2-0.6v-6.5l5.6,7c0.1,0.1,0.2,0.1,0.3,0.2c0.1,0,0.3,0.1,0.4,0.1c0.3,0,0.5-0.1,0.7-0.3
		c0.2-0.2,0.3-0.4,0.3-0.7v-8.8c0-0.2-0.1-0.4-0.2-0.6C143,80.1,142.8,80,142.5,80z"/>
	<path class="st0" d="M154.7,80.3c-0.2-0.2-0.4-0.2-0.7-0.2h-6.7c-0.3,0-0.5,0.1-0.7,0.2c-0.2,0.2-0.3,0.4-0.3,0.6
		c0,0.3,0.1,0.5,0.3,0.6c0.2,0.2,0.4,0.2,0.7,0.2h2.4v7.9c0,0.3,0.1,0.5,0.3,0.7c0.2,0.2,0.4,0.3,0.7,0.3c0.3,0,0.5-0.1,0.7-0.3
		c0.2-0.2,0.3-0.4,0.3-0.7v-7.9h2.4c0.3,0,0.5-0.1,0.7-0.2c0.2-0.2,0.3-0.4,0.3-0.6C155,80.7,154.9,80.4,154.7,80.3z"/>
</g>
</svg>
