<svg id="layer" xmlns="http://www.w3.org/2000/svg" width="600.29" height="213.4" viewBox="0 0 600.29 213.4">
  <defs>
    <style>
      .cls-1 {
        fill: #fff;
      }

      .cls-2 {
        fill: #1e3a8a;
      }
    </style>
  </defs>
  <g>
    <path class="cls-1" d="M216.6,106.7C216.6,47.8,168.1,0,108.3,0S0,47.8,0,106.7,48.5,213.4,108.3,213.4s108.3-47.8,108.3-106.7" transform="translate(0 0)"/>
    <path class="cls-2" d="M28.8,129.5l1.9-8.9H55.4a3,3,0,0,0,1.8-.5,3,3,0,0,0,.9-1.8l1.4-6.3c0-.2.1-.4.1-.7q0-1.2-1.8-1.2H39.6a5.87,5.87,0,0,1-4.1-1.2,4.56,4.56,0,0,1-1.3-3.3,19.07,19.07,0,0,1,.2-2l2.5-11.8a11.32,11.32,0,0,1,3-6c1.4-1.3,3.6-2,6.6-2H75.3l-1.8,8.7H49a2.31,2.31,0,0,0-1.6.5,3.87,3.87,0,0,0-.8,1.7l-1.3,6c0,.2-.1.3-.1.5v.4c0,.7.5,1,1.5,1H65.2c1.9,0,3.3.4,4.1,1.2a4.63,4.63,0,0,1,1.3,3.4,13.45,13.45,0,0,1-.2,1.9l-2.7,12.4a11.32,11.32,0,0,1-3,6c-1.4,1.3-3.6,2-6.6,2H28.8" transform="translate(0 0)"/>
    <polygon class="cls-2" points="112.2 129.5 110.5 97 93.7 129.5 82.1 129.5 80.3 83.9 91 83.9 91.7 117.3 108.5 83.9 118.8 83.9 120.3 117.3 136.1 83.9 146.3 83.9 123.9 129.5 112.2 129.5"/>
    <path class="cls-2" d="M141.2,129.5l1.9-8.9h24.7a3,3,0,0,0,1.8-.5,3,3,0,0,0,.9-1.8l1.4-6.3c0-.2.1-.4.1-.7q0-1.2-1.8-1.2H151.9a5.87,5.87,0,0,1-4.1-1.2,4.17,4.17,0,0,1-1.3-3.3,19.07,19.07,0,0,1,.2-2l2.5-11.8a11.32,11.32,0,0,1,3-6c1.4-1.3,3.6-2,6.6-2h28.8l-1.8,8.7H161.3a2.31,2.31,0,0,0-1.6.5,3.87,3.87,0,0,0-.8,1.7l-1.3,6c0,.2-.1.3-.1.5v.4c0,.7.5,1,1.5,1h18.5c1.9,0,3.3.4,4.1,1.2a4.63,4.63,0,0,1,1.3,3.4,13.45,13.45,0,0,1-.2,1.9L180,121.5a11.32,11.32,0,0,1-3,6c-1.4,1.3-3.6,2-6.6,2H141.2" transform="translate(0 0)"/>
  </g>
  <g>
    <path class="cls-1" d="M258.09,87.08H243.84c-2.61,0-4.53.72-5.7,2.15s-1.86,3.72-2.29,7.24l-2.3,19c-.43,3.55-.24,6,.57,7.34s2.68,2.29,5.36,2.29h14.25c2.61,0,4.52-.72,5.68-2.14s1.83-3.71,2.26-7.25l.52-4.25a1,1,0,0,0-.7-1.08l-4.11-1.26a1,1,0,0,0-.84.12,1,1,0,0,0-.44.72l-1,8.14H239.49L242.4,94H258l-.85,7a1,1,0,0,0,.33.87,1,1,0,0,0,.91.22l4.39-1.12a1,1,0,0,0,.75-.85l.41-3.4c.43-3.57.26-6-.54-7.36S260.77,87.08,258.09,87.08Z" transform="translate(0 0)"/>
    <path class="cls-1" d="M298.39,87.08H280.8c-2.63,0-4.55.73-5.72,2.17s-1.85,3.73-2.27,7.22l-2.3,19c-.42,3.52-.24,5.91.55,7.32s2.68,2.31,5.38,2.31H294c2.6,0,4.51-.72,5.67-2.13s1.85-3.72,2.28-7.26l2.29-19c.43-3.54.25-5.94-.55-7.34S301.06,87.08,298.39,87.08Zm0,6.9-2.91,24.07h-19L279.36,94Z" transform="translate(0 0)"/>
    <path class="cls-1" d="M345.32,87.08h-3.9a1,1,0,0,0-1,.88L338,107.7c-.25,2.07-.42,3.75-.52,5-.23-.41-.46-.78-.68-1.11L320.71,87.52a1,1,0,0,0-.83-.44h-2.67a1,1,0,0,0-1,.88l-4.36,36a1,1,0,0,0,.24.78,1,1,0,0,0,.75.34h3.9a1,1,0,0,0,1-.88l2.57-21.2c.19-1.55.33-2.93.44-4.11a1.74,1.74,0,0,0,.11.18l.37.55,16.51,25a1,1,0,0,0,.83.45H341a1,1,0,0,0,1-.88l4.36-36a1,1,0,0,0-.25-.78A1,1,0,0,0,345.32,87.08Z" transform="translate(0 0)"/>
    <path class="cls-1" d="M377.87,87.08H364.32c-2.61,0-4.53.73-5.68,2.16s-1.83,3.72-2.26,7.23L356,99.6c-.43,3.54-.25,5.94.54,7.33s2.66,2.3,5.34,2.3h14.85l-1.07,8.82H358.74l.57-4.67a1,1,0,0,0-1.3-1.07l-4.1,1.29a1,1,0,0,0-.69.83l-.12,1c-.43,3.55-.25,6,.56,7.34s2.68,2.29,5.37,2.29h14.84c2.6,0,4.51-.72,5.66-2.14s1.83-3.71,2.26-7.25l.49-4c.43-3.54.25-5.94-.57-7.33s-2.66-2.26-5.29-2.26h-14.9l1-8h16L378,98.07a1,1,0,0,0,1.35,1.05l3.81-1.46a1,1,0,0,0,.63-.82l.1-.75c.38-3.18.16-5.4-.69-6.78S380.49,87.08,377.87,87.08Z" transform="translate(0 0)"/>
    <path class="cls-1" d="M424,87.08h-4.19a1,1,0,0,0-1,.88l-3.65,30.09H398.61l3.62-29.85a1,1,0,0,0-1-1.12H397a1,1,0,0,0-1,.88l-3.32,27.46c-.43,3.52-.25,5.92.56,7.32s2.68,2.31,5.36,2.31h15.09c2.6,0,4.51-.72,5.67-2.13s1.85-3.72,2.28-7.26L425,88.2a1,1,0,0,0-.25-.78A1,1,0,0,0,424,87.08Z" transform="translate(0 0)"/>
    <path class="cls-1" d="M465.11,118.05H447L450.6,88.2a1,1,0,0,0-.24-.78,1,1,0,0,0-.75-.34h-4.26a1,1,0,0,0-1,.88l-4.36,36a1,1,0,0,0,.24.78,1,1,0,0,0,.75.34H464.5a1,1,0,0,0,1-.88l.61-5a1,1,0,0,0-.25-.79A1,1,0,0,0,465.11,118.05Z" transform="translate(0 0)"/>
    <path class="cls-1" d="M495.1,93.1l.6-4.9a1,1,0,0,0-.25-.78,1,1,0,0,0-.75-.34H467.18a1,1,0,0,0-1,.88l-.59,4.9a1,1,0,0,0,.24.78,1,1,0,0,0,.75.34h10.5l-3.63,30a1,1,0,0,0,.24.78,1,1,0,0,0,.75.34h4.23a1,1,0,0,0,1-.88L483.33,94h10.78A1,1,0,0,0,495.1,93.1Z" transform="translate(0 0)"/>
    <path class="cls-1" d="M515.07,87.82a1,1,0,0,0-1-.74h-4.54a1,1,0,0,0-.89.55l-18.25,36a1,1,0,0,0,.89,1.45h4.19a1,1,0,0,0,.9-.56l4-8.29h15.8l2,8.09a1,1,0,0,0,1,.76h4.67a1,1,0,0,0,.79-.39,1,1,0,0,0,.17-.87Zm-.5,21.79h-10.8l7.15-14.53Z" transform="translate(0 0)"/>
    <path class="cls-1" d="M564.56,87.08h-3.89a1,1,0,0,0-1,.88l-2.39,19.74c-.25,2.07-.43,3.75-.52,5-.23-.41-.46-.78-.68-1.11L540,87.52a1,1,0,0,0-.83-.44h-2.67a1,1,0,0,0-1,.88l-4.36,36a1,1,0,0,0,.25.78,1,1,0,0,0,.75.34H536a1,1,0,0,0,1-.88l2.57-21.2c.19-1.55.33-2.93.43-4.11l.12.18c.17.27.31.47.37.55l16.51,25a1,1,0,0,0,.83.45h2.38a1,1,0,0,0,1-.88l4.36-36a1,1,0,0,0-.25-.78A1,1,0,0,0,564.56,87.08Z" transform="translate(0 0)"/>
    <path class="cls-1" d="M600,87.42a1,1,0,0,0-.74-.34H571.76a1,1,0,0,0-1,.88l-.59,4.9a1,1,0,0,0,.25.78,1,1,0,0,0,.74.34h10.5l-3.63,30a1,1,0,0,0,.24.78,1,1,0,0,0,.75.34h4.23a1,1,0,0,0,1-.88L587.91,94h10.78a1,1,0,0,0,1-.88l.6-4.9A1,1,0,0,0,600,87.42Z" transform="translate(0 0)"/>
  </g>
</svg>
